<svg xmlns="http://www.w3.org/2000/svg" xmlns:svg="http://www.w3.org/2000/svg" id="svg4" width="16" height="16" fill="none" stroke="#FFF" stroke-linecap="round" stroke-linejoin="round" stroke-width="2.5" class="feather feather-command" version="1.1" viewBox="0 0 24 24"><metadata id="metadata10"/><path style="stroke-width:2.5005;stroke-miterlimit:4;stroke-dasharray:none;stroke:#e528ff;stroke-opacity:1" id="path2" d="M18 3a3 3 0 0 0-3 3v12a3 3 0 0 0 3 3 3 3 0 0 0 3-3 3 3 0 0 0-3-3H6a3 3 0 0 0-3 3 3 3 0 0 0 3 3 3 3 0 0 0 3-3V6a3 3 0 0 0-3-3 3 3 0 0 0-3 3 3 3 0 0 0 3 3h12a3 3 0 0 0 3-3 3 3 0 0 0-3-3z"/></svg>