<svg xmlns="http://www.w3.org/2000/svg" xmlns:svg="http://www.w3.org/2000/svg" id="svg9" width="16" height="16" version="1.1"><metadata id="metadata13"/><defs id="defs3"><style id="current-color-scheme" type="text/css"/></defs><g style="fill:#ac9d93" id="g328" transform="translate(0,1)"><rect style="opacity:.97000002;fill:#ac9d93" id="rect6242" width="1" height="1" x="7" y="12"/><rect style="opacity:.97000002;fill:#ac9d93" id="rect6242-2" width="1" height="1" x="8" y="12"/><rect style="opacity:.97000002;fill:#ac9d93" id="rect6242-0" width="1" height="1" x="6" y="11"/><rect style="opacity:.97000002;fill:#ac9d93" id="rect6242-6" width="1" height="1" x="7" y="11"/><rect style="opacity:.97000002;fill:#ac9d93" id="rect6242-1" width="1" height="1" x="8" y="11"/><rect style="opacity:.97000002;fill:#ac9d93" id="rect6242-5" width="1" height="1" x="9" y="11"/><rect style="opacity:.97000002;fill:#ac9d93" id="rect6242-54" width="1" height="1" x="6" y="10"/><rect style="opacity:.97000002;fill:#ac9d93" id="rect6242-7" width="1" height="1" x="7" y="10"/><rect style="opacity:.97000002;fill:#ac9d93" id="rect6242-65" width="1" height="1" x="8" y="10"/><rect style="opacity:.97000002;fill:#ac9d93" id="rect6242-69" width="1" height="1" x="9" y="10"/><rect style="opacity:.97000002;fill:#ac9d93" id="rect6242-3" width="1" height="1" x="10" y="10"/><rect style="opacity:.97000002;fill:#ac9d93" id="rect6242-74" width="1" height="1" x="5" y="10"/><rect style="opacity:.97000002;fill:#ac9d93" id="rect6242-4" width="1" height="1" x="6" y="9"/><rect style="opacity:.97000002;fill:#ac9d93" id="rect6242-43" width="1" height="1" x="7" y="9"/><rect style="opacity:.97000002;fill:#ac9d93" id="rect6242-07" width="1" height="1" x="8" y="9"/><rect style="opacity:.97000002;fill:#ac9d93" id="rect6242-8" width="1" height="1" x="9" y="9"/></g><g style="fill:#ac9d93" id="g310" transform="translate(0,1)"><rect style="opacity:.97000002;fill:#ac9d93" id="rect6242-52" width="1" height="1" x="4" y="9"/><rect style="opacity:.97000002;fill:#ac9d93" id="rect6242-547" width="1" height="1" x="5" y="9"/><rect style="opacity:.97000002;fill:#ac9d93" id="rect6242-68" width="1" height="1" x="10" y="9"/><rect style="opacity:.97000002;fill:#ac9d93" id="rect6242-84" width="1" height="1" x="11" y="9"/><rect style="opacity:.97000002;fill:#ac9d93" id="rect6242-31" width="1" height="1" x="3" y="8"/><rect style="opacity:.97000002;fill:#ac9d93" id="rect6242-49" width="1" height="1" x="4" y="8"/><rect style="opacity:.97000002;fill:#ac9d93" id="rect6242-20" width="1" height="1" x="5" y="8"/><rect style="opacity:.97000002;fill:#ac9d93" id="rect6242-689" width="1" height="1" x="6" y="8"/><rect style="opacity:.97000002;fill:#ac9d93" id="rect6242-26" width="1" height="1" x="7" y="8"/><rect style="opacity:.97000002;fill:#ac9d93" id="rect6242-64" width="1" height="1" x="8" y="8"/><rect style="opacity:.97000002;fill:#ac9d93" id="rect6242-50" width="1" height="1" x="9" y="8"/><rect style="opacity:.97000002;fill:#ac9d93" id="rect6242-48" width="1" height="1" x="10" y="8"/><rect style="opacity:.97000002;fill:#ac9d93" id="rect6242-71" width="1" height="1" x="11" y="8"/><rect style="opacity:.97000002;fill:#ac9d93" id="rect6242-72" width="1" height="1" x="12" y="8"/><rect style="opacity:.97000002;fill:#ac9d93" id="rect6242-06" width="1" height="1" x="10" y="7"/><rect style="opacity:.97000002;fill:#ac9d93" id="rect6242-94" width="1" height="1" x="9" y="7"/><rect style="opacity:.97000002;fill:#ac9d93" id="rect6242-90" width="1" height="1" x="8" y="7"/><rect style="opacity:.97000002;fill:#ac9d93" id="rect6242-91" width="1" height="1" x="7" y="7"/><rect style="opacity:.97000002;fill:#ac9d93" id="rect6242-77" width="1" height="1" x="6" y="7"/><rect style="opacity:.97000002;fill:#ac9d93" id="rect6242-11" width="1" height="1" x="5" y="7"/></g><rect id="rect6242-21" width="1" height="1" x="5" y="4" style="opacity:.97000002;fill:#ac9d93"/><g style="fill:#ac9d93" id="g247" transform="translate(0,1)"><rect style="opacity:.97000002;fill:#ac9d93" id="rect6242-722" width="1" height="1" x="13" y="7"/><rect style="opacity:.97000002;fill:#ac9d93" id="rect6242-61" width="1" height="1" x="12" y="7"/><rect style="opacity:.97000002;fill:#ac9d93" id="rect6242-15" width="1" height="1" x="11" y="7"/><rect style="opacity:.97000002;fill:#ac9d93" id="rect6242-59" width="1" height="1" x="4" y="7"/><rect style="opacity:.97000002;fill:#ac9d93" id="rect6242-776" width="1" height="1" x="3" y="7"/><rect style="opacity:.97000002;fill:#ac9d93" id="rect6242-73" width="1" height="1" x="2" y="7"/><rect style="opacity:.97000002;fill:#ac9d93" id="rect6242-481" width="1" height="1" x="3" y="6"/><rect style="opacity:.97000002;fill:#ac9d93" id="rect6242-390" width="1" height="1" x="4" y="6"/><rect style="opacity:.97000002;fill:#ac9d93" id="rect6242-88" width="1" height="1" x="5" y="6"/><rect style="opacity:.97000002;fill:#ac9d93" id="rect6242-509" width="1" height="1" x="6" y="6"/><rect style="opacity:.97000002;fill:#ac9d93" id="rect6242-63" width="1" height="1" x="7" y="6"/><rect style="opacity:.97000002;fill:#ac9d93" id="rect6242-85" width="1" height="1" x="8" y="6"/><rect style="opacity:.97000002;fill:#ac9d93" id="rect6242-611" width="1" height="1" x="9" y="6"/><rect style="opacity:.97000002;fill:#ac9d93" id="rect6242-598" width="1" height="1" x="10" y="6"/><rect style="opacity:.97000002;fill:#ac9d93" id="rect6242-4810" width="1" height="1" x="11" y="6"/><rect style="opacity:.97000002;fill:#ac9d93" id="rect6242-30" width="1" height="1" x="12" y="6"/><rect style="opacity:.97000002;fill:#ac9d93" id="rect6242-25" width="1" height="1" x="5" y="5"/><rect style="opacity:.97000002;fill:#ac9d93" id="rect6242-40" width="1" height="1" x="6" y="5"/><rect style="opacity:.97000002;fill:#ac9d93" id="rect6242-594" width="1" height="1" x="7" y="5"/><rect style="opacity:.97000002;fill:#ac9d93" id="rect6242-692" width="1" height="1" x="8" y="5"/><rect style="opacity:.97000002;fill:#ac9d93" id="rect6242-775" width="1" height="1" x="9" y="5"/><rect style="opacity:.97000002;fill:#ac9d93" id="rect6242-4812" width="1" height="1" x="10" y="5"/></g><g style="fill:#ac9d93" id="g223" transform="translate(0,1)"><rect style="opacity:.97000002;fill:#ac9d93" id="rect6242-656" width="1" height="1" x="1" y="6"/><rect style="opacity:.97000002;fill:#ac9d93" id="rect6242-39" width="1" height="1" x="2" y="6"/><rect style="opacity:.97000002;fill:#ac9d93" id="rect6242-44" width="1" height="1" x="14" y="6"/><rect style="opacity:.97000002;fill:#ac9d93" id="rect6242-447" width="1" height="1" x="13" y="6"/><rect style="opacity:.97000002;fill:#ac9d93" id="rect6242-631" width="1" height="1" x="2" y="5"/><rect style="opacity:.97000002;fill:#ac9d93" id="rect6242-75" width="1" height="1" x="3" y="4"/><rect style="opacity:.97000002;fill:#ac9d93" id="rect6242-96" width="1" height="1" x="4" y="4"/><rect style="opacity:.97000002;fill:#ac9d93" id="rect6242-78" width="1" height="1" x="5" y="3"/><rect style="opacity:.97000002;fill:#ac9d93" id="rect6242-57" width="1" height="1" x="5" y="4"/><rect style="opacity:.97000002;fill:#ac9d93" id="rect6242-41" width="1" height="1" x="6" y="3"/><rect style="opacity:.97000002;fill:#ac9d93" id="rect6242-859" width="1" height="1" x="7" y="3"/><rect style="opacity:.97000002;fill:#ac9d93" id="rect6242-753" width="1" height="1" x="8" y="3"/><rect style="opacity:.97000002;fill:#ac9d93" id="rect6242-883" width="1" height="1" x="9" y="3"/><rect style="opacity:.97000002;fill:#ac9d93" id="rect6242-18" width="1" height="1" x="10" y="3"/><rect style="opacity:.97000002;fill:#ac9d93" id="rect6242-964" width="1" height="1" x="7" y="4"/><rect style="opacity:.97000002;fill:#ac9d93" id="rect6242-33" width="1" height="1" x="6" y="4"/><rect style="opacity:.97000002;fill:#ac9d93" id="rect6242-38" width="1" height="1" x="8" y="4"/><rect style="opacity:.97000002;fill:#ac9d93" id="rect6242-60" width="1" height="1" x="9" y="4"/><rect style="opacity:.97000002;fill:#ac9d93" id="rect6242-488" width="1" height="1" x="10" y="4"/><rect style="opacity:.97000002;fill:#ac9d93" id="rect6242-89" width="1" height="1" x="11" y="4"/><rect style="opacity:.97000002;fill:#ac9d93" id="rect6242-7764" width="1" height="1" x="12" y="4"/><rect style="opacity:.97000002;fill:#ac9d93" id="rect6242-303" width="1" height="1" x="3" y="5"/><rect style="opacity:.97000002;fill:#ac9d93" id="rect6242-09" width="1" height="1" x="4" y="5"/><rect style="opacity:.97000002;fill:#ac9d93" id="rect6242-893" width="1" height="1" x="11" y="5"/><rect style="opacity:.97000002;fill:#ac9d93" id="rect6242-680" width="1" height="1" x="12" y="5"/><rect style="opacity:.97000002;fill:#ac9d93" id="rect6242-210" width="1" height="1" x="13" y="5"/></g><rect id="rect1004" width="1" height="1" x="14" y="1" style="opacity:.97000002;fill:#ff2a2a"/><rect id="rect1004-3" width="1" height="1" x="15" y="2" style="opacity:.97000002;fill:#ff2a2a"/><rect id="rect1004-6" width="1" height="1" x="13" y="0" style="opacity:.97000002;fill:#ff2a2a"/><rect id="rect1004-7" width="1" height="1" x="15" y="0" style="opacity:.97000002;fill:#ff2a2a"/><rect id="rect1004-5" width="1" height="1" x="13" y="2" style="opacity:.97000002;fill:#ff2a2a"/></svg>