<svg xmlns="http://www.w3.org/2000/svg" xmlns:svg="http://www.w3.org/2000/svg" id="svg9" width="16" height="16" version="1.1"><metadata id="metadata13"/><defs id="defs3"><style id="current-color-scheme" type="text/css"/></defs><rect id="rect3720" width="1" height="1" x="5" y="2" style="fill:#ff2a2a"/><rect id="rect3720-3" width="1" height="1" x="6" y="2" style="fill:#ff2a2a"/><rect id="rect3720-6" width="1" height="1" x="7" y="2" style="fill:#ff2a2a"/><rect id="rect3720-7" width="1" height="1" x="8" y="2" style="fill:#ff2a2a"/><rect id="rect3720-5" width="1" height="1" x="9" y="2" style="fill:#ff2a2a"/><rect id="rect3720-35" width="1" height="1" x="10" y="2" style="fill:#ff2a2a"/><rect id="rect3720-62" width="1" height="1" x="5" y="3" style="fill:#ff2a2a"/><rect id="rect3720-9" width="1" height="1" x="6" y="3" style="fill:#ff2a2a"/><rect id="rect3720-1" width="1" height="1" x="7" y="3" style="fill:#ff2a2a"/><rect id="rect3720-2" width="1" height="1" x="8" y="3" style="fill:#ff2a2a"/><rect id="rect3720-70" width="1" height="1" x="9" y="3" style="fill:#ff2a2a"/><rect id="rect3720-93" width="1" height="1" x="10" y="3" style="fill:#ff2a2a"/><rect id="rect3720-93-7" width="1" height="1" x="11" y="3" style="fill:#ff2a2a"/><rect id="rect3720-93-5" width="1" height="1" x="11" y="2" style="fill:#ff2a2a"/><rect id="rect3720-8" width="1" height="1" x="4" y="2" style="fill:#ff2a2a"/><rect id="rect3720-62-0" width="1" height="1" x="4" y="3" style="fill:#ff2a2a"/><rect id="rect3720-6-8" width="1" height="1" x="7" y="5" style="fill:#f55"/><rect id="rect3720-7-4" width="1" height="1" x="8" y="5" style="fill:#f55"/><rect id="rect3720-1-7" width="1" height="1" x="7" y="6" style="fill:#f55"/><rect id="rect3720-2-2" width="1" height="1" x="8" y="6" style="fill:#f55"/><rect id="rect3720-6-4" width="1" height="1" x="7" y="7" style="fill:#f55"/><rect id="rect3720-7-0" width="1" height="1" x="8" y="7" style="fill:#f55"/><rect id="rect3720-1-6" width="1" height="1" x="7" y="8" style="fill:#f55"/><rect id="rect3720-2-29" width="1" height="1" x="8" y="8" style="fill:#f55"/><rect id="rect3720-6-9" width="1" height="1" x="7" y="9" style="fill:#f55"/><rect id="rect3720-7-08" width="1" height="1" x="8" y="9" style="fill:#f55"/><rect id="rect3720-1-1" width="1" height="1" x="7" y="10" style="fill:#f55"/><rect id="rect3720-2-3" width="1" height="1" x="8" y="10" style="fill:#f55"/><rect id="rect3720-6-1" width="1" height="1" x="4" y="8" style="fill:#916f6f"/><rect id="rect3720-7-1" width="1" height="1" x="5" y="8" style="fill:#916f6f"/><rect id="rect3720-1-0" width="1" height="1" x="4" y="9" style="fill:#916f6f"/><rect id="rect3720-6-0" width="1" height="1" x="10" y="8" style="fill:#916f6f"/><rect id="rect3720-7-3" width="1" height="1" x="11" y="8" style="fill:#916f6f"/><rect id="rect3720-2-1" width="1" height="1" x="11" y="9" style="fill:#916f6f"/><rect id="rect3720-6-96" width="1" height="1" x="4" y="10" style="fill:#916f6f"/><rect id="rect3720-1-3" width="1" height="1" x="4" y="11" style="fill:#916f6f"/><rect id="rect3720-6-05" width="1" height="1" x="4" y="12" style="fill:#916f6f"/><rect id="rect3720-7-6" width="1" height="1" x="5" y="12" style="fill:#916f6f"/><rect id="rect3720-1-64" width="1" height="1" x="4" y="13" style="fill:#916f6f"/><rect id="rect3720-2-0" width="1" height="1" x="5" y="13" style="fill:#916f6f"/><rect id="rect3720-6-04" width="1" height="1" x="6" y="12" style="fill:#916f6f"/><rect id="rect3720-7-62" width="1" height="1" x="7" y="12" style="fill:#916f6f"/><rect id="rect3720-1-67" width="1" height="1" x="6" y="13" style="fill:#916f6f"/><rect id="rect3720-2-5" width="1" height="1" x="7" y="13" style="fill:#916f6f"/><rect id="rect3720-6-2" width="1" height="1" x="8" y="12" style="fill:#916f6f"/><rect id="rect3720-7-99" width="1" height="1" x="9" y="12" style="fill:#916f6f"/><rect id="rect3720-1-60" width="1" height="1" x="8" y="13" style="fill:#916f6f"/><rect id="rect3720-2-27" width="1" height="1" x="9" y="13" style="fill:#916f6f"/><rect id="rect3720-6-6" width="1" height="1" x="10" y="12" style="fill:#916f6f"/><rect id="rect3720-7-13" width="1" height="1" x="11" y="12" style="fill:#916f6f"/><rect id="rect3720-1-2" width="1" height="1" x="10" y="13" style="fill:#916f6f"/><rect id="rect3720-2-15" width="1" height="1" x="11" y="13" style="fill:#916f6f"/><rect id="rect3720-7-14" width="1" height="1" x="11" y="10" style="fill:#916f6f"/><rect id="rect3720-2-07" width="1" height="1" x="11" y="11" style="fill:#916f6f"/><rect id="rect3720-2-4" width="1" height="1" x="3" y="10" style="fill:#916f6f"/><rect id="rect3720-7-42" width="1" height="1" x="3" y="11" style="fill:#916f6f"/><rect id="rect3720-2-10" width="1" height="1" x="3" y="12" style="fill:#916f6f"/><rect id="rect3720-1-20" width="1" height="1" x="12" y="10" style="fill:#916f6f"/><rect id="rect3720-6-29" width="1" height="1" x="12" y="11" style="fill:#916f6f"/><rect id="rect3720-1-8" width="1" height="1" x="12" y="12" style="fill:#916f6f"/><rect id="rect3720-2-10-4" width="1" height="1" x="3" y="13" style="fill:#916f6f"/><rect id="rect3720-2-10-0" width="1" height="1" x="12" y="13" style="fill:#916f6f"/><rect id="rect3720-2-10-9" width="1" height="1" x="13" y="12" style="fill:#916f6f"/><rect id="rect3720-2-10-1" width="1" height="1" x="13" y="13" style="fill:#916f6f"/><rect id="rect3720-2-10-96" width="1" height="1" x="2" y="12" style="fill:#916f6f"/><rect id="rect3720-2-10-2" width="1" height="1" x="2" y="13" style="fill:#916f6f"/><rect id="rect3720-2-10-5" width="1" height="1" x="5" y="9" style="fill:#916f6f"/><rect id="rect3720-2-10-44" width="1" height="1" x="10" y="9" style="fill:#916f6f"/><rect id="rect3720-6-8-9" width="1" height="1" x="7" y="4" style="fill:#f55"/><rect id="rect3720-7-4-9" width="1" height="1" x="8" y="4" style="fill:#f55"/></svg>